<svg width="21" height="20" viewBox="0 0 21 20" fill="none" xmlns="http://www.w3.org/2000/svg">
  <mask id="mask0_4234_25074" style="mask-type:alpha" maskUnits="userSpaceOnUse" x="0" y="0" width="21" height="20">
    <rect x="0.5" width="20" height="20" fill="#D9D9D9"/>
  </mask>
  <g mask="url(#mask0_4234_25074)">
    <path d="M10.5 18.0837C10.3611 18.0837 10.2222 18.0663 10.0833 18.0316C9.94444 17.9969 9.8125 17.9448 9.6875 17.8753L3.85417 14.6462C3.59028 14.4934 3.38194 14.2885 3.22917 14.0316C3.07639 13.7746 3 13.4934 3 13.1878V6.81283C3 6.50727 3.07639 6.22602 3.22917 5.96908C3.38194 5.71213 3.59028 5.50727 3.85417 5.35449L9.6875 2.12533C9.8125 2.05588 9.94444 2.0038 10.0833 1.96908C10.2222 1.93435 10.3611 1.91699 10.5 1.91699C10.6389 1.91699 10.7778 1.93435 10.9167 1.96908C11.0556 2.0038 11.1875 2.05588 11.3125 2.12533L17.1458 5.35449C17.4097 5.50727 17.6181 5.71213 17.7708 5.96908C17.9236 6.22602 18 6.50727 18 6.81283V13.1878C18 13.4934 17.9236 13.7746 17.7708 14.0316C17.6181 14.2885 17.4097 14.4934 17.1458 14.6462L11.3125 17.8753C11.1875 17.9448 11.0556 17.9969 10.9167 18.0316C10.7778 18.0663 10.6389 18.0837 10.5 18.0837ZM8.08333 7.70866C8.38889 7.38921 8.74653 7.13574 9.15625 6.94824C9.56597 6.76074 10.0139 6.66699 10.5 6.66699C10.9861 6.66699 11.434 6.76074 11.8438 6.94824C12.2535 7.13574 12.6111 7.38921 12.9167 7.70866L15.4167 6.31283L10.5 3.58366L5.58333 6.31283L8.08333 7.70866ZM9.66667 15.9587V13.2295C8.94444 13.035 8.34722 12.6427 7.875 12.0524C7.40278 11.4621 7.16667 10.7781 7.16667 10.0003C7.16667 9.84755 7.17361 9.70171 7.1875 9.56283C7.20139 9.42394 7.22917 9.29199 7.27083 9.16699L4.66667 7.70866V13.1878L9.66667 15.9587ZM10.5 11.667C10.9583 11.667 11.3507 11.5038 11.6771 11.1774C12.0035 10.851 12.1667 10.4587 12.1667 10.0003C12.1667 9.54199 12.0035 9.14963 11.6771 8.82324C11.3507 8.49685 10.9583 8.33366 10.5 8.33366C10.0417 8.33366 9.64931 8.49685 9.32292 8.82324C8.99653 9.14963 8.83333 9.54199 8.83333 10.0003C8.83333 10.4587 8.99653 10.851 9.32292 11.1774C9.64931 11.5038 10.0417 11.667 10.5 11.667ZM11.3333 15.9587L16.3333 13.1878V7.70866L13.7292 9.16699C13.7708 9.30588 13.7986 9.4413 13.8125 9.57324C13.8264 9.70519 13.8333 9.84755 13.8333 10.0003C13.8333 10.7781 13.5972 11.4621 13.125 12.0524C12.6528 12.6427 12.0556 13.035 11.3333 13.2295V15.9587Z" fill="#64748B"/>
  </g>
</svg>
