<svg width="21" height="20" viewBox="0 0 21 20" fill="none" xmlns="http://www.w3.org/2000/svg">
  <mask id="a" style="mask-type:alpha" maskUnits="userSpaceOnUse" x="0" y="0" width="21" height="20">
    <path fill="#D9D9D9" d="M.417 0h20v20h-20z"/>
  </mask>
  <g mask="url(#a)">
    <path d="M6 16.083a.8.8 0 0 1-.229-.583.8.8 0 0 1 .23-.583l3.583-3.584V5.73L8.021 7.292a.8.8 0 0 1-.583.25.8.8 0 0 1-.583-.25.8.8 0 0 1-.25-.594q0-.344.25-.594l2.979-3a.7.7 0 0 1 .27-.177.9.9 0 0 1 .313-.052q.167 0 .313.052a.7.7 0 0 1 .27.177l3.021 3.021a.8.8 0 0 1 .25.583.8.8 0 0 1-.25.584.8.8 0 0 1-.593.25.8.8 0 0 1-.594-.25l-1.583-1.563v5.584a1.65 1.65 0 0 1-.48 1.166l-3.604 3.604a.8.8 0 0 1-.583.23.8.8 0 0 1-.583-.23m8.834.021a.8.8 0 0 1-.583.23.8.8 0 0 1-.584-.23l-1.5-1.479a.8.8 0 0 1-.25-.583.8.8 0 0 1 .25-.584.8.8 0 0 1 .594-.25q.344 0 .594.25l1.479 1.48a.8.8 0 0 1 .24.572.78.78 0 0 1-.24.594" fill="#64748B"/>
  </g>
</svg>
