<svg width="169" height="25" viewBox="0 0 169 25" fill="none" xmlns="http://www.w3.org/2000/svg">
  <path d="M6.365 18.716v-17.7H.89v22.816h16.263v-5.117zm49.051-3.26 1.63-4.432q.195-.489.391-1.075.033-.099.326-1.076.033-.162.131-.44.098-.275.131-.407l.098-.325h.032l.097.358q.033.13.131.423t.131.423q.293.977.326 1.076.195.587.391 1.075l1.695 4.4zm8.507 8.375h5.898L60.695 1.048h-5.182l-9.094 22.783h5.866l1.304-3.553h9.029l1.303 3.553zm15.318-5.116V6.135h4.498q1.173 0 2.347.457 1.108.423 1.956 1.272a6.2 6.2 0 0 1 1.335 2.02q.49 1.174.49 2.64t-.49 2.64a5.9 5.9 0 0 1-1.335 1.955q-.816.75-1.956 1.206a6.4 6.4 0 0 1-2.347.424v-.032H79.24zM73.766 1.05v22.783h9.973q2.543 0 4.595-.75a11.5 11.5 0 0 0 3.748-2.249 10.2 10.2 0 0 0 2.542-3.553q.912-2.055.913-4.694c0-1.76-.316-3.26-.946-4.694q-.945-2.118-2.542-3.617A11.4 11.4 0 0 0 88.3 1.929q-2.118-.816-4.595-.815l.032-.066h-9.973zm40.806-.034V9.85h-8.54V1.016h-5.475v22.816h5.475v-8.865h8.54v8.864h5.475V1.016zm26.139 0v12.549q0 2.966-1.172 4.302-1.174 1.336-3.423 1.336-2.247 0-3.422-1.304-1.174-1.304-1.173-4.302V1.048h-5.475v12.68q0 2.64.717 4.563.75 1.955 2.053 3.325a8.56 8.56 0 0 0 3.162 2.053q1.89.651 4.14.651c1.5 0 2.846-.217 4.106-.651a8.6 8.6 0 0 0 3.162-2.053q1.336-1.37 2.053-3.325.717-1.924.717-4.531l.032-12.744zm15.612 18.22v-5.15h3.814q1.337.001 2.15.685.816.684.815 1.89 0 1.108-.783 1.858-.75.717-2.15.717zm.033-9.32V5.612h3.292q1.108 0 1.858.586.717.587.717 1.532 0 .944-.717 1.532-.75.588-1.858.587v.065zM150.88.951v22.815h9.843q2.152 0 3.617-.52 1.5-.522 2.542-1.467a5.6 5.6 0 0 0 1.499-2.184 7.4 7.4 0 0 0 .489-2.673q0-.913-.326-1.76a6.8 6.8 0 0 0-.88-1.598 5 5 0 0 0-1.272-1.272 5.9 5.9 0 0 0-1.564-.783v-.032q.52-.196 1.01-.586t.88-.978q.424-.652.652-1.304.228-.685.228-1.564 0-1.206-.489-2.347a5.7 5.7 0 0 0-1.434-1.956q-.912-.814-2.184-1.303-1.271-.49-2.803-.49h.098-9.909z" fill="#062654"/>
  <path fill-rule="evenodd" clip-rule="evenodd" d="M32.008.322c1.787 0 3.481.394 5.001 1.1a4.48 4.48 0 0 0-3.255 4.598 6.43 6.43 0 0 0-8.176 6.19 6.43 6.43 0 0 0 6.43 6.43 6.43 6.43 0 0 0 6.111-8.435h.1a4.474 4.474 0 0 0 4.356-3.448 11.8 11.8 0 0 1 1.322 5.452c0 6.565-5.323 11.888-11.889 11.888S20.12 18.774 20.12 12.21C20.12 5.643 25.443.32 32.008.32z" fill="#7FADE0"/>
  <path d="M38.22 8.87a3.14 3.14 0 1 0 0-6.277 3.14 3.14 0 0 0 0 6.278" fill="#062654"/>
</svg>
