<svg width="32" height="32" viewBox="0 0 32 32" fill="none" xmlns="http://www.w3.org/2000/svg">
  <mask id="mask0_10019_15534" style="mask-type:alpha" maskUnits="userSpaceOnUse" x="0" y="0" width="32" height="32">
    <rect width="32" height="32" fill="#D9D9D9"/>
  </mask>
  <g mask="url(#mask0_10019_15534)">
    <path d="M14.6665 17.3346H7.99984C7.62206 17.3346 7.30539 17.2069 7.04984 16.9513C6.79428 16.6957 6.6665 16.3791 6.6665 16.0013C6.6665 15.6235 6.79428 15.3069 7.04984 15.0513C7.30539 14.7957 7.62206 14.668 7.99984 14.668H14.6665V8.0013C14.6665 7.62352 14.7943 7.30686 15.0498 7.0513C15.3054 6.79575 15.6221 6.66797 15.9998 6.66797C16.3776 6.66797 16.6943 6.79575 16.9498 7.0513C17.2054 7.30686 17.3332 7.62352 17.3332 8.0013V14.668H23.9998C24.3776 14.668 24.6943 14.7957 24.9498 15.0513C25.2054 15.3069 25.3332 15.6235 25.3332 16.0013C25.3332 16.3791 25.2054 16.6957 24.9498 16.9513C24.6943 17.2069 24.3776 17.3346 23.9998 17.3346H17.3332V24.0013C17.3332 24.3791 17.2054 24.6957 16.9498 24.9513C16.6943 25.2069 16.3776 25.3346 15.9998 25.3346C15.6221 25.3346 15.3054 25.2069 15.0498 24.9513C14.7943 24.6957 14.6665 24.3791 14.6665 24.0013V17.3346Z" fill="#2265A2"/>
  </g>
</svg>
