<svg width="21" height="20" viewBox="0 0 21 20" fill="none" xmlns="http://www.w3.org/2000/svg">
  <mask id="mask0_4234_25115" style="mask-type:alpha" maskUnits="userSpaceOnUse" x="0" y="0" width="21" height="20">
    <rect x="0.5" width="20" height="20" fill="#D9D9D9"/>
  </mask>
  <g mask="url(#mask0_4234_25115)">
    <path d="M9.52057 18.3337C9.14557 18.3337 8.82266 18.2087 8.55182 17.9587C8.28099 17.7087 8.1178 17.4031 8.06224 17.042L7.87474 15.667C7.69418 15.5975 7.52405 15.5142 7.36432 15.417C7.2046 15.3198 7.04835 15.2156 6.89557 15.1045L5.60391 15.6462C5.25668 15.7989 4.90946 15.8128 4.56224 15.6878C4.21502 15.5628 3.94418 15.3406 3.74974 15.0212L2.77057 13.3128C2.57613 12.9934 2.52057 12.6531 2.60391 12.292C2.68724 11.9309 2.87474 11.6323 3.16641 11.3962L4.27057 10.5628C4.25668 10.4656 4.24974 10.3719 4.24974 10.2816V9.71908C4.24974 9.6288 4.25668 9.53505 4.27057 9.43783L3.16641 8.60449C2.87474 8.36838 2.68724 8.06977 2.60391 7.70866C2.52057 7.34755 2.57613 7.00727 2.77057 6.68783L3.74974 4.97949C3.94418 4.66005 4.21502 4.43783 4.56224 4.31283C4.90946 4.18783 5.25668 4.20171 5.60391 4.35449L6.89557 4.89616C7.04835 4.78505 7.20807 4.68088 7.37474 4.58366C7.54141 4.48644 7.70807 4.4031 7.87474 4.33366L8.06224 2.95866C8.1178 2.59755 8.28099 2.29199 8.55182 2.04199C8.82266 1.79199 9.14557 1.66699 9.52057 1.66699H11.4789C11.8539 1.66699 12.1768 1.79199 12.4477 2.04199C12.7185 2.29199 12.8817 2.59755 12.9372 2.95866L13.1247 4.33366C13.3053 4.4031 13.4754 4.48644 13.6352 4.58366C13.7949 4.68088 13.9511 4.78505 14.1039 4.89616L15.3956 4.35449C15.7428 4.20171 16.09 4.18783 16.4372 4.31283C16.7845 4.43783 17.0553 4.66005 17.2497 4.97949L18.2289 6.68783C18.4234 7.00727 18.4789 7.34755 18.3956 7.70866C18.3122 8.06977 18.1247 8.36838 17.8331 8.60449L16.7289 9.43783C16.7428 9.53505 16.7497 9.6288 16.7497 9.71908V10.2816C16.7497 10.3719 16.7359 10.4656 16.7081 10.5628L17.8122 11.3962C18.1039 11.6323 18.2914 11.9309 18.3747 12.292C18.4581 12.6531 18.4025 12.9934 18.2081 13.3128L17.2081 15.0212C17.0136 15.3406 16.7428 15.5628 16.3956 15.6878C16.0484 15.8128 15.7011 15.7989 15.3539 15.6462L14.1039 15.1045C13.9511 15.2156 13.7914 15.3198 13.6247 15.417C13.4581 15.5142 13.2914 15.5975 13.1247 15.667L12.9372 17.042C12.8817 17.4031 12.7185 17.7087 12.4477 17.9587C12.1768 18.2087 11.8539 18.3337 11.4789 18.3337H9.52057ZM9.66641 16.667H11.3122L11.6039 14.4587C12.0345 14.3475 12.4338 14.1844 12.8018 13.9691C13.1699 13.7538 13.5067 13.4934 13.8122 13.1878L15.8747 14.042L16.6872 12.6253L14.8956 11.2712C14.965 11.0767 15.0136 10.8719 15.0414 10.6566C15.0692 10.4413 15.0831 10.2225 15.0831 10.0003C15.0831 9.7781 15.0692 9.55935 15.0414 9.34408C15.0136 9.1288 14.965 8.92394 14.8956 8.72949L16.6872 7.37533L15.8747 5.95866L13.8122 6.83366C13.5067 6.51421 13.1699 6.24685 12.8018 6.03158C12.4338 5.8163 12.0345 5.6531 11.6039 5.54199L11.3331 3.33366H9.68724L9.39557 5.54199C8.96502 5.6531 8.56571 5.8163 8.19766 6.03158C7.8296 6.24685 7.4928 6.50727 7.18724 6.81283L5.12474 5.95866L4.31224 7.37533L6.10391 8.70866C6.03446 8.91699 5.98585 9.12533 5.95807 9.33366C5.9303 9.54199 5.91641 9.76421 5.91641 10.0003C5.91641 10.2225 5.9303 10.4378 5.95807 10.6462C5.98585 10.8545 6.03446 11.0628 6.10391 11.2712L4.31224 12.6253L5.12474 14.042L7.18724 13.167C7.4928 13.4864 7.8296 13.7538 8.19766 13.9691C8.56571 14.1844 8.96502 14.3475 9.39557 14.4587L9.66641 16.667ZM10.5414 12.917C11.347 12.917 12.0345 12.6323 12.6039 12.0628C13.1734 11.4934 13.4581 10.8059 13.4581 10.0003C13.4581 9.19477 13.1734 8.50727 12.6039 7.93783C12.0345 7.36838 11.347 7.08366 10.5414 7.08366C9.72196 7.08366 9.03099 7.36838 8.46849 7.93783C7.90599 8.50727 7.62474 9.19477 7.62474 10.0003C7.62474 10.8059 7.90599 11.4934 8.46849 12.0628C9.03099 12.6323 9.72196 12.917 10.5414 12.917Z" fill="#64748B"/>
  </g>
</svg>
