<svg width="24" height="24" viewBox="0 0 24 24" fill="none" xmlns="http://www.w3.org/2000/svg">
  <mask id="a" style="mask-type:alpha" maskUnits="userSpaceOnUse" x="0" y="0" width="24" height="24">
    <path fill="#D9D9D9" d="M0 0h24v24H0z"/>
  </mask>
  <g mask="url(#a)">
    <path d="M12 22a9.7 9.7 0 0 1-3.9-.788 10.1 10.1 0 0 1-3.175-2.137q-1.35-1.35-2.137-3.175A9.7 9.7 0 0 1 2 12q0-2.075.788-3.9a10.1 10.1 0 0 1 2.137-3.175q1.35-1.35 3.175-2.137A9.7 9.7 0 0 1 12 2q2.075 0 3.9.788a10.1 10.1 0 0 1 3.175 2.137q1.35 1.35 2.137 3.175A9.7 9.7 0 0 1 22 12a9.7 9.7 0 0 1-.788 3.9 10.1 10.1 0 0 1-2.137 3.175q-1.35 1.35-3.175 2.137A9.7 9.7 0 0 1 12 22m-1-2.1v-3q-1.5-.3-2.55-1.35T7.1 13h-3q.3 2.725 2.238 4.625T11 19.9m2 0q2.724-.3 4.663-2.237Q19.6 15.725 19.9 13h-3q-.3 1.5-1.35 2.55T13 16.9zM4.1 11H7l2.425-2.425q.275-.275.637-.425.363-.15.763-.15h2.35a1.98 1.98 0 0 1 1.4.575L17 11h2.9q-.375-3.025-2.625-5.012Q15.025 4 12 4T6.725 5.987Q4.475 7.976 4.1 11" fill="#64748B"/>
  </g>
</svg>
